# ProBuilder 5.0.4
# https://unity3d.com/unity/features/worldbuilding/probuilder
# 6/26/2022 6:12:29 PM

mtllib ./Prism.mtl
o Prism

g Prism
v 0 0 0.3749999
v -1 0 0.3749999
v -0.5 1 0.3749999
v -1 0 0.6249999
v -0.5 1 0.6249999
v 0 0 0.6249999

vt 0 0
vt 1 0
vt 0.5 1
vt 0.3749999 -0.4472136
vt 0.6249999 -0.4472136
vt 0.3749999 0.6708204
vt 0.6249999 0.6708204
vt -1 0
vt -0.5 1
vt -0.6249999 0
vt -0.3749999 0
vt -0.6249999 1.118034
vt -0.3749999 1.118034
vt 0 0.3749999
vt -1 0.3749999
vt 0 0.6249999
vt -1 0.6249999

vn 0 0 -1
vn -0.8944272 0.4472136 0
vn 0 0 1
vn 0.8944272 0.4472136 0
vn 0 -1 0

usemtl red
f 1/1/1 2/2/1 3/3/1
f 4/8/3 6/1/3 5/9/3
f 3/6/2 2/4/2 4/5/2
f 4/5/2 5/7/2 3/6/2
f 5/12/4 6/10/4 1/11/4
f 1/11/4 3/13/4 5/12/4
f 4/17/5 2/15/5 1/14/5
f 1/14/5 6/16/5 4/17/5

